<?xml version="1.0" encoding="UTF-8"?>
<svg viewBox="0 0 58.932507 66.461258" xmlns="http://www.w3.org/2000/svg">
 <defs>
  <clipPath id="f">
   <path d="m486 227.11s1.509-4.928 7.278-6.492c0 0-0.571-9.63-6.388-13.787-1.609-1.15-10.934 5.264-12.879 11.911 7.062 1.244 11.989 8.368 11.989 8.368"/>
  </clipPath>
  <clipPath id="c">
   <path d="m253.45 344.5h286.05v-251.05h-286.05v251.05z" clip-rule="evenodd"/>
  </clipPath>
  <clipPath id="b">
   <path d="m0 792h612v-792h-612v792z"/>
  </clipPath>
  <clipPath id="a">
   <path d="m.06,792h612v-792h-612v792z"/>
  </clipPath>
  <clipPath id="g">
   <path d="m495.96 219.41s-7.13 1.101-6.5-2.296 6.404-4.089 6.404-4.089 1.605 3.68 0.096 6.385"/>
  </clipPath>
  <clipPath id="h">
   <path d="m485.82 229.01s1.102-7.13-2.295-6.499-4.09 6.404-4.09 6.404 3.681 1.605 6.385 0.095"/>
  </clipPath>
  <clipPath id="d">
   <path d="m491.4,232.101c.22.471.112.986-.241,1.15-.353.165-.817-.084-1.036-.555s-.112-.986.241-1.15c.352-.165.817.084 1.036.555"/>
  </clipPath>
  <clipPath id="e">
   <path d="m490.364,231.546 1.621-.757c.353-.164.823.082 1.043.553s.111.986-.242,1.151l-1.638.764-.784-1.711"/>
  </clipPath>
 </defs>
 <g transform="translate(-346.94 -505.09)">
  <path d="m374.24 541.08-3.3348 18.243s-0.80852 2.5044-3.6824 3.807c-0.98911 0.44733-1.6783 0.70162-1.6668 1.9326 7e-3 0.7888 3.1676 0.71199 5.0016 0.0467 1.0161-0.36845 2.3726-1.4323 2.3726-1.4323l6.5107-21.946-5.2009-0.65076z" fill="#e9e9e9" stroke="#a7a5a6" stroke-miterlimit="3.864" stroke-width=".56046"/>
  <path d="m369.06 540.09s-6.1879 1.9408-9.9928 13.064c-0.70058 0.5532-1.0711 1.3576-4.1236-0.52517-1.2465-0.76908-2.4235-1.1344-2.7255 0.57292-0.137 0.77738 4.5086 3.8226 4.5086 3.8226l2.3353 0.93099s0.73483-0.31033 1.7115-1.9637c2.3498-3.9793 6.6436-12.137 7.697-9.2922 1.2797-3.1718 5.7676-5.8817 5.7676-5.8817l-5.178-0.72756z" fill="#e9e9e9" stroke="#a7a5a6" stroke-miterlimit="3.864" stroke-width=".56046"/>
  <path d="m369.73 539.33s-6.4028-0.33732-10.21 6.4682c0 0 2.4401 5.3202 7.6171 5.176 0 0 1.7053-3.945 3.5973-4.7463 0 0-2.4401 3.7426-1.7229 7.1864 0 0 3.6575 3.9502 8.547 2.0851 0 0-0.78672-4.6591 1.3659-7.2528l-9.1947-8.9165z" fill="#fff" stroke="#231f20" stroke-miterlimit="3.864" stroke-width=".56046"/>
  <path d="m382.65 518.59s-3.615-0.74002-2.9009-3.3316c0 0-2.4951 1.1064-2.5584 3.6306 0 0 0.57603 0.88636 1.9917 1.3005 0 0-0.91438 0.27192-2.5989-0.26674 0 0-1.4582 4.0208 1.8184 5.9201 0 0 2.384-0.86664 4.2481-7.2528" fill="#231f20"/>
  <path d="m378.79 532.78 4.5512 2.7847c1.6544-4.1225 5.314-4.4225 6.8854-4.3467 0.37157 0.62585 1.3825 0.84589 2.3778 0.48366 1.0836-0.3944 1.7374-1.3285 1.4624-2.0862-0.12455-0.34043-0.41516-0.58745-0.79503-0.7203l2.5408-4.7754-9.6462-7.0265c-6.0841 1.1925-7.9534 8.4516-6.4059 10.557s-0.97043 5.1293-0.97043 5.1293z" fill="#e9e9e9" stroke="#a7a5a6" stroke-miterlimit="3.864" stroke-width=".56046"/>
  <path d="m381.14 524.83c-0.63208 1.3565 0.29787 3.1292 2.0706 3.9554s3.724 0.39751 4.3571-0.95901" fill="none" stroke="#231f20" stroke-miterlimit="3.864" stroke-width=".50338"/>
  <path d="m382.3 524.09 1.8744 1.2662c0.4027 0.0353 1.0234-0.63831 0.9642-1.2008l-2.8386-0.0654" fill="#d3d2d2"/>
  <path d="m382.35331,524.21535 1.68243.78569c.36637.17021.85418-.0851 1.08252-.57396s.1152-1.02336-.25117-1.19461l-1.70007-.79295-.81371,1.77583" fill="#e9e9e9"/>
  <g transform="matrix(1.0379 0 0 -1.0379 -126.59 764.54)">
   <g clip-path="url(#e)">
    <path d="m493.639,232.369-2.651,1.236-.132-.284 2.65-1.236 .133.284" fill="#fff"/>
    <path d="m493.501,232.073 .132.284-2.651,1.236-.132-.284 2.651-1.236" fill="#fff"/>
    <path d="m493.496,232.061 .132.284-2.651,1.236-.132-.284 2.651-1.236" fill="#fefefe"/>
    <path d="m493.49,232.049 .132.284-2.651,1.236-.132-.284 2.651-1.236" fill="#fefefe"/>
    <path d="m493.484,232.037 .133.284-2.651,1.236-.133-.283 2.651-1.237" fill="#fdfdfd"/>
    <path d="m493.479,232.026 .132.283-2.651,1.237-.132-.284 2.651-1.236" fill="#fdfdfd"/>
    <path d="m493.473,232.014 .133.283-2.651,1.237-.133-.284 2.651-1.236" fill="#fdfdfd"/>
    <path d="m493.47 232 0.132 0.284-2.651 1.236-0.132-0.284 2.651-1.236" fill="#fcfcfc"/>
    <path d="m493.462,231.99 .133.284-2.651,1.236-.133-.284 2.651-1.236" fill="#fcfcfc"/>
    <path d="m493.457,231.978 .132.284-2.651,1.236-.132-.283 2.651-1.237" fill="#fbfbfb"/>
    <path d="m493.451,231.966 .133.284-2.651,1.236-.133-.283 2.651-1.237" fill="#fbfbfb"/>
    <path d="m493.446,231.955 .132.283-2.651,1.237-.132-.284 2.651-1.236" fill="#fbfbfb"/>
    <path d="m493.44,231.943 .133.283-2.652,1.237-.132-.284 2.651-1.236" fill="#fafafa"/>
    <path d="m493.435,231.931 .132.284-2.651,1.236-.132-.284 2.651-1.236" fill="#fafafa"/>
    <path d="m493.429,231.919 .132.284-2.651,1.236-.132-.284 2.651-1.236" fill="#faf9f9"/>
    <path d="m493.424,231.907 .132.284-2.651,1.236-.132-.284 2.651-1.236" fill="#f9f9f9"/>
    <path d="m493.418,231.895 .132.284-2.651,1.236-.132-.283 2.651-1.237" fill="#f9f9f9"/>
    <path d="m493.413,231.883 .132.284-2.651,1.236-.132-.283 2.651-1.237" fill="#f8f8f8"/>
    <path d="m493.407,231.872 .132.283-2.651,1.236-.132-.283 2.651-1.236" fill="#f8f8f8"/>
    <path d="m493.401,231.86 .133.283-2.651,1.237-.132-.284 2.65-1.236" fill="#f8f8f8"/>
    <path d="m493.396,231.848 .132.284-2.651,1.236-.132-.284 2.651-1.236" fill="#f7f7f7"/>
    <path d="m493.39,231.836 .133.284-2.651,1.236-.133-.284 2.651-1.236" fill="#f7f7f7"/>
    <path d="m493.385,231.824 .132.284-2.651,1.236-.132-.284 2.651-1.236" fill="#f6f6f6"/>
    <path d="m493.38,231.812 .132.284-2.651,1.236-.133-.284 2.652-1.236" fill="#f6f6f6"/>
    <path d="m493.374,231.8 .132.284-2.651,1.236-.132-.283 2.651-1.237" fill="#f6f6f6"/>
    <path d="m493.368,231.789 .133.283-2.651,1.237-.133-.284 2.651-1.236" fill="#f5f5f5"/>
    <path d="m493.363,231.777 .132.283-2.651,1.237-.132-.284 2.651-1.236" fill="#f5f5f5"/>
    <path d="m493.357,231.765 .133.284-2.651,1.236-.133-.284 2.651-1.236" fill="#f5f4f5"/>
    <path d="m493.352,231.753 .132.284-2.651,1.236-.132-.284 2.651-1.236" fill="#f4f4f4"/>
    <path d="m493.346,231.741 .133.284-2.651,1.236-.133-.284 2.651-1.236" fill="#f4f4f4"/>
    <path d="m493.341,231.729 .132.284-2.651,1.236-.132-.284 2.651-1.236" fill="#f3f3f3"/>
    <path d="m493.335,231.718 .133.283-2.651,1.236-.133-.283 2.651-1.236" fill="#f3f3f3"/>
    <path d="m493.33,231.706 .132.283-2.651,1.237-.132-.284 2.651-1.236" fill="#f3f2f3"/>
    <path d="m493.324,231.694 .133.283-2.652,1.237-.132-.284 2.651-1.236" fill="#f2f2f2"/>
    <path d="m493.319,231.682 .132.284-2.651,1.236-.132-.284 2.651-1.236" fill="#f2f2f2"/>
    <path d="m493.313,231.67 .132.284-2.651,1.236-.132-.284 2.651-1.236" fill="#f2f1f1"/>
    <path d="m493.308,231.658 .132.284-2.651,1.236-.132-.283 2.651-1.237" fill="#f1f1f1"/>
    <path d="m493.302,231.647 .132.283-2.651,1.236-.132-.283 2.651-1.236" fill="#f1f0f1"/>
    <path d="m493.297,231.635 .132.283-2.651,1.236-.132-.283 2.651-1.236" fill="#f0f0f0"/>
    <path d="m493.291,231.623 .132.283-2.651,1.237-.132-.284 2.651-1.236" fill="#f0f0f0"/>
    <path d="m493.285,231.611 .133.284-2.651,1.236-.133-.284 2.651-1.236" fill="#f0efef"/>
    <path d="m493.28,231.599 .132.284-2.651,1.236-.132-.284 2.651-1.236" fill="#efefef"/>
    <path d="m493.274,231.587 .133.284-2.651,1.236-.133-.284 2.651-1.236" fill="#efeeef"/>
    <path d="m493.269,231.575 .132.284-2.651,1.236-.132-.283 2.651-1.237" fill="#efeeee"/>
    <path d="m493.263,231.563 .133.284-2.651,1.236-.133-.283 2.651-1.237" fill="#eee"/>
    <path d="m493.258,231.552 .132.283-2.651,1.237-.132-.284 2.651-1.236" fill="#eeeded"/>
    <path d="m493.252,231.54 .133.284-2.651,1.236-.133-.284 2.651-1.236" fill="#ededed"/>
    <path d="m493.247,231.528 .132.284-2.651,1.236-.132-.284 2.651-1.236" fill="#ededed"/>
    <path d="m493.241,231.516 .133.284-2.651,1.236-.133-.284 2.651-1.236" fill="#edecec"/>
    <path d="m493.236,231.504 .132.284-2.651,1.236-.132-.284 2.651-1.236" fill="#ececec"/>
    <path d="m493.23,231.492 .133.284-2.652,1.236-.132-.283 2.651-1.237" fill="#ecebeb"/>
    <path d="m493.225,231.48 .132.284-2.651,1.236-.132-.283 2.651-1.237" fill="#ebebeb"/>
    <path d="m493.219,231.469 .132.283-2.651,1.237-.132-.284 2.651-1.236" fill="#ebebeb"/>
    <path d="m493.214,231.457 .132.284-2.651,1.236-.132-.284 2.651-1.236" fill="#ebeaea"/>
    <path d="m493.208,231.445 .132.284-2.65,1.236-.133-.284 2.651-1.236" fill="#eaeaea"/>
    <path d="m493.203,231.433 .132.284-2.651,1.236-.132-.284 2.651-1.236" fill="#eae9e9"/>
    <path d="m493.197,231.421 .132.284-2.651,1.236-.132-.283 2.651-1.237" fill="#e9e9e9"/>
    <path d="m493.324,231.693-2.651,1.236-.132-.283 2.65-1.237 .133.284" fill="#e9e9e9"/>
   </g>
  </g>
  <g transform="matrix(1.0379 0 0 -1.0379 -126.59 764.54)">
   <g clip-path="url(#c)">
    <g clip-path="url(#b)">
     <g clip-path="url(#a)">
      <path d="m491.4,232.101c.22.471.112.986-.241,1.15-.353.165-.817-.084-1.036-.555s-.112-.986.241-1.15c.352-.165.817.084 1.036.555" fill="#fff"/>
     </g>
    </g>
   </g>
  </g>
  <g transform="matrix(1.0379 0 0 -1.0379 -126.59 764.54)">
   <g clip-path="url(#d)">
    <path d="m490.364,233.322 .991-1.776 .776.508-.95,1.72-.817-.452" fill="#bdbcbc"/>
    <path d="m490.328,233.298 .989-1.776 .777.508-.951,1.72-.815-.452" fill="#bebdbd"/>
    <path d="m490.292,233.274 .987-1.776 .777.508-.951,1.72-.813-.452" fill="#bfbebe"/>
    <path d="m490.256,233.25 .985-1.777 .776.509-.95,1.72-.811-.452" fill="#c0bebf"/>
    <path d="m490.22,233.226 .983-1.777 .777.509-.951,1.72-.809-.452" fill="#c0bfbf"/>
    <path d="m490.184,233.202 .981-1.777 .777.508-.951,1.721-.807-.452" fill="#c1c0c0"/>
    <path d="m490.148,233.178 .979-1.777 .777.508-.951,1.72-.805-.451" fill="#c2c1c1"/>
    <path d="m490.112,233.154 .977-1.777 .777.508-.951,1.72-.803-.451" fill="#c3c2c2"/>
    <path d="m490.075,233.13 .976-1.777 .777.508-.951,1.72-.802-.451" fill="#c4c3c3"/>
    <path d="m490.039,233.107 .974-1.778 .777.508-.951,1.72-.8-.45" fill="#c5c4c4"/>
    <path d="m490.003,233.083 .972-1.778 .777.508-.951,1.72-.798-.45" fill="#c5c4c5"/>
    <path d="m489.967,233.059 .97-1.779 .777.509-.951,1.72-.796-.45" fill="#c6c5c5"/>
    <path d="m489.931,233.035 .968-1.779 .777.509-.951,1.72-.794-.45" fill="#c7c6c6"/>
    <path d="m489.895,233.011 .966-1.779 .777.508-.951,1.72-.792-.449" fill="#c8c7c7"/>
    <path d="m489.859,232.987 .964-1.779 .776.508-.95,1.72-.79-.449" fill="#c9c8c8"/>
    <path d="m489.823,232.963 .962-1.779 .777.508-.951,1.72-.788-.449" fill="#cac9c9"/>
    <path d="m489.787,232.939 .96-1.779 .776.508-.95,1.72-.786-.449" fill="#cbcaca"/>
    <path d="m489.751,232.916 .958-1.78 .776.508-.95,1.72-.784-.448" fill="#cbcacb"/>
    <path d="m489.715,232.892 .956-1.781 .777.509-.951,1.72-.782-.448" fill="#cccbcb"/>
    <path d="m489.679,232.868 .954-1.781 .776.509-.95,1.72-.78-.448" fill="#cdcccc"/>
    <path d="m489.643,232.844 .952-1.781 .777.508-.951,1.72-.778-.447" fill="#cecdcd"/>
    <path d="m489.606,232.82 .951-1.781 .776.508-.95,1.72-.777-.447" fill="#cfcece"/>
    <path d="m489.57,232.796 .949-1.781 .776.508-.95,1.72-.775-.447" fill="#d0cfcf"/>
    <path d="m489.534,232.772 .947-1.781 .777.508-.951,1.72-.773-.447" fill="#d0d0d0"/>
    <path d="m489.498,232.749 .945-1.782 .777.508-.951,1.72-.771-.446" fill="#d1d0d1"/>
    <path d="m489.462,232.725 .943-1.783 .776.509-.95,1.72-.769-.446" fill="#d2d1d2"/>
    <path d="m489.426,232.701 .941-1.783 .776.509-.95,1.72-.767-.446" fill="#d3d2d2"/>
   </g>
  </g>
  <path d="m392.54 529.48-1.0182 0.76492s0.95175-0.79606 1.7603 0.0353-0.74209-0.80021-0.74209-0.80021" fill="#a7a5a6" fill-rule="evenodd"/>
  <path d="m385.07986,521.84584c0,0 .31136-.77634-1.2351-1.47588 .59783.51791.11936.89985.52414,1.22575 .20239.16191.37157-.0477.54697.0758 .0758.054.16399.17436.16399.17436z" fill="#231f20" stroke="#231f20" stroke-linecap="square" stroke-linejoin="bevel" stroke-miterlimit="3.864" stroke-width=".16814"/>
  <path d="m386.42 520.39s-0.31241-2.2699-2.3996-1.4966" fill="none" stroke="#231f20" stroke-linecap="round" stroke-linejoin="round" stroke-miterlimit="3.864" stroke-width=".50338"/>
  <path d="m387.51372,523.27606c0,0 .62273-.55735 1.80904.65698-.6902-.38505-.88636.19513-1.33058-.0737-.22107-.13492-.082-.36534-.25947-.48781-.0758-.053-.21899-.0955-.21899-.0955z" fill="#231f20" stroke="#231f20" stroke-linecap="square" stroke-linejoin="bevel" stroke-miterlimit="3.864" stroke-width=".16814"/>
  <path d="m390.67 523.02s-0.3124-2.2688-2.3996-1.4956" fill="none" stroke="#231f20" stroke-linecap="round" stroke-linejoin="round" stroke-miterlimit="3.864" stroke-width=".50338"/>
  <path d="m393.85 524.04c-0.72029-0.10483-1.5029-0.56461-1.5029-0.56461l0.51271-2.3415-1.4302 1.7779c-1.862-0.79191-3.6191-2.3259-3.6191-2.3259l1.5672-2.5376-2.1401 2.1163c-5.6825-3.1946-5.1853-6.382-5.1853-6.382 6.3747-3.5859 8.3582 2.4121 8.3582 2.4121s12.13-3.506 7.2102 15.403c0 0-2.7701 2.2418-7.286 0.27089-0.81059-3.4707 3.5153-7.8288 3.5153-7.8288z" fill="#231f20" fill-rule="evenodd" stroke="#231f20" stroke-linecap="round" stroke-linejoin="round" stroke-miterlimit="3.864" stroke-width=".26778"/>
  <path d="m376.56 529.44s-2.7141-5.944-1.1645-11.361c0 0 2.8366-0.73068 3.0213-3.2341 0.0965-1.3067-0.85211-1.617-1.2476-0.89881-0.62896 1.1396-1.067 0.62792-1.067 0.62792s1.0348-2.382 0.17852-3.2839c-0.36118-0.38091-1.5703-0.33835-2.4847-0.0674 0 0-1.2102 0.69642-1.177 2.0841-0.96421-1.7872-1.3358-0.0426-1.3451 0.40789-0.0321 1.5714 1.5247 3.149 2.382 4.0634-2.0166 5.2611 0.32175 12.976 0.32175 12.976l2.5823-1.314z" fill="#e9e9e9" stroke="#a7a5a6" stroke-miterlimit="3.864" stroke-width=".56046"/>
  <path d="m377.63 526.84s1.1438 7.4002-2.382 6.7453-4.245-6.6467-4.245-6.6467 3.8205-1.6658 6.627-0.0986" fill="#231f20"/>
  <g transform="matrix(1.0379 0 0 -1.0379 -126.59 764.54)">
   <g clip-path="url(#h)">
    <path d="m484.782,221-.682,9.548 3.626-.643-1.022-9.232-1.922.327" fill="#918f90"/>
    <path d="m486.297,220.779-1.922.242-1.085,9.448 3.626-.484-.619-9.206" fill="#999798"/>
    <path d="m485.889,220.885-1.921.157-1.488,9.347 3.626-.324-.217-9.18" fill="#a2a0a0"/>
    <path d="m485.482,220.991-1.92.073-1.892,9.245 3.627-.164 .185-9.154" fill="#aaa8a9"/>
    <path d="m485.08 221.1-1.92-0.012-2.294 9.144 3.626-4e-3 0.588-9.128" fill="#b2b1b1"/>
    <path d="m484.668,221.203-1.92-.097-2.697,9.044 3.627.156 .99-9.103" fill="#bab9b9"/>
    <path d="m484.26,221.309-1.918-.181-3.101,8.942 3.627.316 1.392-9.077" fill="#c3c1c2"/>
    <path d="m483.853,221.415-1.918-.266-3.504,8.841 3.628.476 1.794-9.051" fill="#cbcaca"/>
    <path d="m481.528,221.17-3.906,8.74 3.627.636 2.197-9.025-1.918-.351" fill="#d3d2d2"/>
   </g>
  </g>
  <g transform="matrix(1.0379 0 0 -1.0379 -126.59 764.54)">
   <g clip-path="url(#c)">
    <g clip-path="url(#b)">
     <g clip-path="url(#a)">
      <path d="m485.82 229.01s1.102-7.13-2.295-6.499-4.09 6.404-4.09 6.404 3.681 1.605 6.385 0.095z" fill="none" stroke="#231f20" stroke-miterlimit="3.864" stroke-width=".54"/>
      <path d="m505.314,220.491c-.768.461.179,1.713.871,2.458 .665.717 1.631.897 1.536,1.261-.615,2.355-4.615,1.527-4.686,1.492-2.311-1.13.088-5.065.088-5.065-2.674-9.525-8.066-2.999-8.066-2.999l-1.504-1.929c0,0 7.321-7.483 10.42,3.211 0,0 2.635-1.705 3.696,1.008 .922,2.355-.819,2.407-1.177.973-.103-.41-.761-.66-1.178-.41z" fill="#e9e9e9" stroke="#a7a5a6" stroke-miterlimit="3.864" stroke-width=".54"/>
      <path d="m495.96 219.41s-7.13 1.101-6.5-2.296 6.404-4.089 6.404-4.089 1.605 3.68 0.096 6.385" fill="#231f20"/>
     </g>
    </g>
   </g>
  </g>
  <g transform="matrix(1.0379 0 0 -1.0379 -126.59 764.54)">
   <g clip-path="url(#g)">
    <path d="m487.946,218.38 9.549-.682-.643,3.626-9.232-1.022 .326-1.922" fill="#918f90"/>
    <path d="m487.73 219.9 0.242-1.922 9.447-1.085-0.483 3.626-9.206-0.619" fill="#999798"/>
    <path d="m487.832,219.488 .157-1.921 9.347-1.489-.324,3.627-9.18-.217" fill="#a2a0a0"/>
    <path d="m487.938,219.08 .072-1.92 9.246-1.892-.164,3.627-9.154.185" fill="#aaa8a9"/>
    <path d="m488.044,218.673-.012-1.92 9.144-2.294-.004,3.626-9.128.588" fill="#b2b1b1"/>
    <path d="m488.15,218.266-.097-1.919 9.043-2.698 .156,3.627-9.102.99" fill="#bab9b9"/>
    <path d="m488.26 217.86-0.182-1.919 8.942-3.101 0.317 3.627-9.077 1.393" fill="#c3c1c2"/>
    <path d="m488.36 217.45-0.266-1.919 8.841-3.504 0.476 3.628-9.051 1.795" fill="#cbcaca"/>
    <path d="m488.12 215.13 8.74-3.907 0.636 3.627-9.025 2.198-0.351-1.918" fill="#d3d2d2"/>
   </g>
  </g>
  <g transform="matrix(1.0379 0 0 -1.0379 -126.59 764.54)">
   <g clip-path="url(#c)">
    <g clip-path="url(#b)">
     <g clip-path="url(#a)">
      <path d="m495.96 219.41s-7.13 1.101-6.5-2.296 6.404-4.089 6.404-4.089 1.605 3.68 0.096 6.385z" fill="none" stroke="#231f20" stroke-miterlimit="3.864" stroke-width=".54"/>
      <path d="m486 227.11s1.509-4.928 7.278-6.492c0 0-0.571-9.63-6.388-13.787-1.609-1.15-10.934 5.264-12.879 11.911 7.062 1.244 11.989 8.368 11.989 8.368" fill="#d3d2d2"/>
     </g>
    </g>
   </g>
  </g>
  <g transform="matrix(1.0379 0 0 -1.0379 -126.59 764.54)">
   <g clip-path="url(#f)">
    <path d="m485.19 229.11-12.615-10.658 2.385-4.499 12.5 12.858-2.27 2.299" fill="#7b7979"/>
    <path d="m472.65 218.33 2.382-4.456 12.468 12.892-2.25 2.286-12.6-10.722" fill="#7d7a7b"/>
    <path d="m472.74 218.2 2.38-4.412 12.436 12.925-2.23 2.275-12.586-10.788" fill="#7e7c7c"/>
    <path d="m472.82 218.07 2.377-4.368 12.404 12.959-2.21 2.262-12.571-10.853" fill="#807d7e"/>
    <path d="m472.9 217.95 2.375-4.325 12.372 12.992-2.19 2.25-12.557-10.917" fill="#817f7f"/>
    <path d="m472.98 217.82 2.372-4.281 12.34 13.026-2.17 2.238-12.542-10.983" fill="#838081"/>
    <path d="m473.07 217.69 2.37-4.238 12.308 13.059-2.15 2.226-12.528-11.047" fill="#848283"/>
    <path d="m473.15 217.57 2.368-4.195 12.276 13.094-2.13 2.214-12.514-11.113" fill="#868484"/>
    <path d="m473.23 217.44 2.365-4.151 12.244 13.127-2.11 2.202-12.499-11.178" fill="#878586"/>
    <path d="m473.31 217.31 2.363-4.108 12.212 13.16-2.09 2.19-12.485-11.242" fill="#898787"/>
    <path d="m473.4 217.19 2.361-4.064 12.18 13.194-2.07 2.178-12.471-11.308" fill="#8a8889"/>
    <path d="m473.48 217.06 2.357-4.02 12.149 13.227-2.05 2.166-12.456-11.373" fill="#8c8a8a"/>
    <path d="m473.56 216.93 2.356-3.977 12.116 13.261-2.03 2.154-12.442-11.438" fill="#8d8b8c"/>
    <path d="m473.64 216.81 2.352-3.933 12.085 13.294-2.01 2.142-12.427-11.503" fill="#8f8d8d"/>
    <path d="m473.72 216.68 2.35-3.889 12.053 13.328-1.991 2.129-12.412-11.568" fill="#918f8f"/>
    <path d="m473.81 216.55 2.348-3.846 12.021 13.361-1.971 2.118-12.398-11.633" fill="#929091"/>
    <path d="m473.89 216.43 2.345-3.802 11.989 13.395-1.951 2.105-12.383-11.698" fill="#949292"/>
    <path d="m473.97 216.3 2.343-3.758 11.958 13.428-1.932 2.094-12.369-11.764" fill="#959394"/>
    <path d="m474.06 216.17 2.34-3.715 11.926 13.462-1.912 2.081-12.354-11.828" fill="#979595"/>
    <path d="m474.14 216.05 2.338-3.671 11.894 13.495-1.892 2.069-12.34-11.893" fill="#989697"/>
    <path d="m474.22 215.92 2.336-3.628 11.862 13.528-1.872 2.058-12.326-11.958" fill="#9a9898"/>
    <path d="m474.3 215.79 2.333-3.584 11.83 13.562-1.852 2.045-12.311-12.023" fill="#9b9a9a"/>
    <path d="m474.38 215.67 2.331-3.54 11.798 13.595-1.832 2.034-12.297-12.089" fill="#9d9b9c"/>
    <path d="m474.47 215.54 2.328-3.497 11.766 13.629-1.812 2.021-12.282-12.153" fill="#9e9d9d"/>
    <path d="m474.55 215.41 2.326-3.453 11.734 13.662-1.792 2.009-12.268-12.218" fill="#a09e9f"/>
    <path d="m474.63 215.29 2.324-3.409 11.702 13.696-1.773 1.997-12.253-12.284" fill="#a2a0a0"/>
    <path d="m474.71 215.16 2.32-3.366 11.671 13.729-1.753 1.985-12.238-12.348" fill="#a3a2a2"/>
    <path d="m474.8 215.03 2.318-3.322 11.639 13.762-1.733 1.974-12.224-12.414" fill="#a5a3a4"/>
    <path d="m474.88 214.91 2.315-3.279 11.607 13.796-1.713 1.961-12.209-12.478" fill="#a6a5a5"/>
    <path d="m474.96 214.78 2.313-3.235 11.575 13.83-1.693 1.948-12.195-12.543" fill="#a8a6a7"/>
    <path d="m475.04 214.65 2.311-3.191 11.543 13.863-1.673 1.937-12.181-12.609" fill="#a9a8a8"/>
    <path d="m475.13 214.53 2.308-3.148 11.511 13.896-1.653 1.925-12.166-12.673" fill="#aba9aa"/>
    <path d="m475.21 214.4 2.306-3.105 11.479 13.931-1.633 1.912-12.152-12.738" fill="#adabab"/>
    <path d="m475.29 214.27 2.304-3.061 11.447 13.964-1.613 1.901-12.138-12.804" fill="#aeadad"/>
    <path d="m475.37 214.15 2.301-3.018 11.415 13.998-1.593 1.888-12.123-12.868" fill="#b0aeaf"/>
    <path d="m475.46 214.02 2.299-2.974 11.383 14.031-1.573 1.877-12.109-12.934" fill="#b1b0b0"/>
    <path d="m475.54 213.89 2.296-2.93 11.351 14.065-1.554 1.864-12.093-12.999" fill="#b3b1b2"/>
    <path d="m475.62 213.77 2.294-2.887 11.319 14.098-1.533 1.852-12.08-13.063" fill="#b4b3b3"/>
    <path d="m475.7 213.64 2.291-2.843 11.288 14.132-1.514 1.84-12.065-13.129" fill="#b6b4b5"/>
    <path d="m475.78 213.51 2.289-2.8 11.256 14.165-1.495 1.828-12.05-13.193" fill="#b7b6b6"/>
    <path d="m475.87 213.39 2.286-2.756 11.225 14.199-1.475 1.816-12.036-13.259" fill="#b9b8b8"/>
    <path d="m475.95 213.26 2.284-2.712 11.193 14.232-1.455 1.804-12.022-13.324" fill="#bab9b9"/>
    <path d="m476.03 213.13 2.281-2.669 11.161 14.265-1.435 1.792-12.007-13.388" fill="#bcbbbb"/>
    <path d="m476.11 213.01 2.279-2.625 11.129 14.299-1.415 1.78-11.993-13.454" fill="#bdbcbd"/>
    <path d="m476.2 212.88 2.276-2.581 11.097 14.332-1.395 1.768-11.978-13.519" fill="#bfbebe"/>
    <path d="m476.28 212.75 2.274-2.538 11.065 14.366-1.375 1.756-11.964-13.584" fill="#c1bfc0"/>
    <path d="m476.36 212.63 2.272-2.494 11.033 14.399-1.355 1.744-11.95-13.649" fill="#c2c1c1"/>
    <path d="m476.44 212.5 2.269-2.451 11.001 14.433-1.335 1.731-11.935-13.713" fill="#c4c3c3"/>
    <path d="m476.53 212.37 2.267-2.407 10.969 14.466-1.315 1.72-11.921-13.779" fill="#c5c4c4"/>
    <path d="m476.61 212.25 2.264-2.363 10.937 14.499-1.295 1.708-11.906-13.844" fill="#c7c6c6"/>
    <path d="m476.69 212.12 2.262-2.32 10.905 14.533-1.276 1.696-11.891-13.909" fill="#c8c7c7"/>
    <path d="m476.77 211.99 2.26-2.276 10.873 14.566-1.256 1.684-11.877-13.974" fill="#cac9c9"/>
    <path d="m476.86 211.87 2.256-2.232 10.842 14.6-1.236 1.671-11.862-14.039" fill="#cbcacb"/>
    <path d="m476.94 211.74 2.254-2.189 10.81 14.633-1.216 1.66-11.848-14.104" fill="#cdcccc"/>
    <path d="m477.02 211.61 2.251-2.145 10.778 14.667-1.196 1.647-11.833-14.169" fill="#cecece"/>
    <path d="m477.1 211.49 2.249-2.101 10.746 14.7-1.176 1.636-11.819-14.235" fill="#d0cfcf"/>
    <path d="m477.18 211.36 2.247-2.058 10.714 14.734-1.156 1.623-11.805-14.299" fill="#d1d1d1"/>
    <path d="m489.06 225.6-11.79-14.364 2.244-2.015 10.682 14.768-1.136 1.611" fill="#d3d2d2"/>
   </g>
  </g>
  <path d="m377.82 528.82s1.5662 5.1147 7.5538 6.738c0 0-0.59263 9.9949-6.6301 14.309-1.67 1.1936-11.348-5.4635-13.367-12.362 7.3296-1.2911 12.443-8.6851 12.443-8.6851z" fill="none" stroke="#231f20" stroke-miterlimit="3.864" stroke-width=".56046"/>
 </g>
</svg>
