<?xml version="1.0" standalone="no"?>
<!DOCTYPE svg PUBLIC "-//W3C//DTD SVG 20010904//EN"
 "http://www.w3.org/TR/2001/REC-SVG-20010904/DTD/svg10.dtd">
<svg version="1.0" xmlns="http://www.w3.org/2000/svg"
 width="1280.000000pt" height="704.000000pt" viewBox="0 0 1280.000000 704.000000"
 preserveAspectRatio="xMidYMid meet">
<metadata>
Created by potrace 1.15, written by Peter Selinger 2001-2017
</metadata>
<g transform="translate(0.000000,704.000000) scale(0.100000,-0.100000)"
fill="#e91e63" stroke="none">
<path d="M5975 6946 c-187 -52 -567 -155 -845 -231 -278 -75 -651 -177 -830
-225 -179 -49 -593 -161 -920 -250 -327 -89 -692 -188 -810 -220 -118 -32
-483 -131 -810 -220 -327 -89 -782 -212 -1010 -274 -228 -62 -488 -133 -577
-157 -89 -24 -160 -45 -159 -47 2 -1 154 -30 337 -63 558 -100 1877 -336 2342
-419 241 -43 440 -80 442 -82 3 -3 -39 -34 -93 -70 -519 -352 -910 -920 -1179
-1713 -153 -452 -289 -1082 -352 -1635 -6 -52 -14 -108 -17 -124 l-6 -29 148
7 c630 29 1139 93 1719 217 515 110 909 225 1818 531 1167 392 1581 506 2162
592 365 54 469 61 940 61 415 -1 445 -2 537 -22 131 -30 277 -72 496 -144
l182 -61 0 -41 c0 -23 -3 -73 -7 -111 l-6 -68 -54 6 c-52 6 -58 4 -103 -29
-60 -44 -103 -101 -132 -175 -30 -79 -30 -213 2 -294 49 -128 70 -146 167
-146 48 0 55 -2 50 -18 -2 -9 -104 -282 -226 -607 l-222 -590 53 -48 c117
-106 251 -179 400 -219 119 -32 320 -32 431 0 103 29 188 66 256 109 58 37
170 139 203 185 l19 28 -187 537 c-103 296 -189 547 -192 557 -5 18 -1 19 62
12 58 -6 72 -4 101 14 160 99 196 424 63 575 -36 41 -44 45 -86 45 -82 0 -92
6 -92 56 0 26 5 44 11 44 6 0 74 -20 151 -45 278 -90 529 -143 612 -131 59 9
96 39 96 77 0 16 -15 102 -34 191 -197 928 -468 1663 -822 2228 -39 62 -57
104 -68 155 -8 39 -22 90 -31 114 -8 24 -14 45 -13 46 2 1 107 37 233 79 127
43 523 177 880 298 358 121 821 277 1030 348 209 70 464 157 568 192 143 48
182 65 165 70 -13 4 -664 129 -1448 278 -784 149 -2215 421 -3180 605 -965
183 -1771 336 -1790 339 -25 4 -128 -20 -375 -88z"/>
</g>
</svg>
