<?xml version="1.0" encoding="utf-8"?>
<svg xmlns="http://www.w3.org/2000/svg" height="48" width="48" viewBox="0 0 48 48">
  <g>
    <ellipse cy="24" cx="24" ry="24" rx="24" fill="#567DD0" />
    <path id="path1" transform="rotate(0,24,24) translate(9.16999919235701,8) scale(1.00000005960465,1.00000005960465)  " fill="#FCFCFC" d="M0,22.013006L29.66,22.013006C28.721982,24.323001,27.259976,26.364993,25.423001,27.989991L25.423001,24.054996 22.277005,24.054996 22.277005,30.162996C21.368985,30.642,20.41,31.035981,19.407986,31.334993L19.407986,24.109988 16.264006,24.109988 16.264006,31.934997C15.790983,31.977996 15.312986,31.999999 14.828978,31.999999 14.346007,31.999999 13.867003,31.977996 13.394988,31.934997L13.394988,24.054996 10.249999,24.054996 10.249999,31.334993C9.2489915,31.035981,8.289,30.642,7.3809805,30.162996L7.3809805,24.109988 4.236999,24.109988 4.236999,27.989991C2.3989863,26.364993,0.93698094,24.323001,0,22.013006z M12.007994,13.387002C11.72,13.387002 11.453001,13.441003 11.208006,13.54899 10.962981,13.657998 10.751982,13.816003 10.57498,14.023996 10.398985,14.230996 10.259001,14.495995 10.156981,14.818993 10.054991,15.141991 10.003996,15.50399 10.003996,15.905999 10.003996,16.311988 10.054991,16.678001 10.156981,17.005988 10.259001,17.333 10.402983,17.604987 10.589995,17.819984 10.777007,18.035987 10.989989,18.196998 11.231993,18.303993 11.473998,18.410987 11.738982,18.465003 12.027983,18.465003 12.397002,18.465003 12.736998,18.371986 13.045989,18.187995 13.355986,18.002998 13.601988,17.716987 13.785979,17.331001 13.968993,16.945991 14.061003,16.471 14.061003,15.905999 14.061003,15.383995 13.975981,14.931999 13.807982,14.548989 13.639006,14.167001 13.397978,13.876993 13.085997,13.680993 12.772002,13.484994 12.414,13.387002 12.007994,13.387002z M23.492001,12.359995L27.304989,12.359995C27.535977,12.359995 27.706997,12.410989 27.818997,12.512994 27.929989,12.615991 27.985989,12.749002 27.985989,12.913995 27.985989,13.083001 27.929989,13.219003 27.818997,13.320001 27.706997,13.422998 27.535977,13.473993 27.304989,13.473993L24.051999,13.473993 24.051999,15.224999 27.048001,15.224999C27.268002,15.224999 27.43298,15.275002 27.541989,15.374001 27.649991,15.473 27.703976,15.602989 27.703976,15.764992 27.703976,15.926995 27.650998,16.059989 27.544003,16.160987 27.436978,16.263999 27.272,16.314994 27.048001,16.314994L24.051999,16.314994 24.051999,18.342994 27.416989,18.342994C27.644986,18.342994 27.815976,18.396003 27.929989,18.500984 28.045987,18.607002 28.104001,18.746986 28.104001,18.922004 28.104001,19.09098 28.045987,19.228004 27.929989,19.332984 27.815976,19.437993 27.644986,19.491002 27.416989,19.491002L23.492001,19.491002C23.178006,19.491002 22.950985,19.422002 22.813992,19.281989 22.675992,19.142982 22.606991,18.916999 22.606991,18.604987L22.606991,13.245996C22.606991,13.038003 22.637997,12.86799 22.699002,12.736993 22.760983,12.604989 22.857998,12.510003 22.98898,12.449991 23.120999,12.389994 23.287991,12.359995 23.492001,12.359995z M16.419981,12.359995L21.010983,12.359995C21.260983,12.359995 21.446988,12.415002 21.568997,12.525995 21.689999,12.635995 21.751004,12.779992 21.751004,12.958001 21.751004,13.137002 21.689999,13.279992 21.565976,13.389001 21.44299,13.497003 21.257992,13.551996 21.010983,13.551996L19.436001,13.551996 19.436001,18.732002C19.436001,19.030006 19.368985,19.251991 19.236996,19.396003 19.102995,19.539983 18.930998,19.612005 18.721007,19.612005 18.50598,19.612005 18.331999,19.539983 18.19699,19.392982 18.062987,19.247993 17.996001,19.026984 17.996001,18.732002L17.996001,13.551996 16.419981,13.551996C16.173003,13.551996 15.989988,13.497003 15.869993,13.389001 15.749998,13.279992 15.69,13.137002 15.69,12.958001 15.69,12.772989 15.751981,12.628 15.876981,12.52099 16.001982,12.413995 16.182982,12.359995 16.419981,12.359995z M12.007994,12.238001C12.747008,12.238001 13.381987,12.389002 13.911986,12.687997 14.441985,12.988992 14.843993,13.415002 15.115996,13.967996 15.389005,14.520989 15.524991,15.169991 15.524991,15.915993 15.524991,16.466987 15.449979,16.967994 15.300992,17.418983 15.152007,17.870002 14.928008,18.260993 14.630003,18.59098 14.331999,18.922004 13.964995,19.174995 13.531004,19.349983 13.096007,19.524999 12.598998,19.612981 12.036986,19.612981 11.479002,19.612981 10.979979,19.522985 10.539,19.342994 10.09799,19.163001 9.729979,18.909004 9.4349961,18.582008 9.1399827,18.254005 8.9169907,17.859992 8.7659898,17.400001 8.6149888,16.938987 8.5400071,16.441001 8.5400071,15.905999 8.5400071,15.357994 8.6179795,14.855995 8.7759995,14.397989 8.9329819,13.941003 9.1609788,13.551996 9.4589829,13.230996 9.7569871,12.909997 10.121001,12.663995 10.548979,12.493997 10.976988,12.324 11.462981,12.238001 12.007994,12.238001z M2.3670039,12.238001C2.6130061,12.238001 2.7879939,12.31399 2.8899836,12.46499 2.9920039,12.615991 3.0960078,12.855996 3.203979,13.18699L4.8179927,17.969001 6.4379873,13.152993C6.5229788,12.900003 6.5849905,12.723993 6.6279897,12.624994 6.6699819,12.525995 6.7399893,12.437997 6.8370046,12.357996 6.9339895,12.277994 7.0669851,12.238001 7.2369985,12.238001 7.3590078,12.238001 7.473998,12.269999 7.5789785,12.331003 7.6839895,12.393 7.7669973,12.475 7.8269949,12.576989 7.8879995,12.678994 7.9179983,12.781991 7.9179983,12.885995 7.9179983,12.956994 7.9069814,13.03399 7.8879995,13.116998 7.86798,13.199991 7.8450002,13.280999 7.8150015,13.359994 7.7859792,13.438989 7.7569875,13.52099 7.7269888,13.604989L6.0010061,18.264991C5.9389944,18.444007 5.8769827,18.612983 5.815978,18.773994 5.7539968,18.933997 5.6829824,19.074989 5.6019888,19.196998 5.519988,19.319007 5.4129934,19.418004 5.2779836,19.496007 5.1439814,19.57398 4.9790034,19.612981 4.7850032,19.612981 4.5899958,19.612981 4.4249873,19.574987 4.2909846,19.498998 4.1560054,19.422979 4.0480037,19.321998 3.9649958,19.196998 3.881988,19.071998 3.8099971,18.93 3.7479853,18.771003 3.6869807,18.612983 3.6249995,18.444007 3.5629878,18.264991L1.8659968,13.644998C1.8370052,13.559991 1.8070065,13.47799 1.7760005,13.39599 1.7460018,13.314996 1.7189938,13.22799 1.6979975,13.133996 1.6770016,13.040002 1.6659848,12.96 1.6659851,12.89599 1.6659848,12.729989 1.7319942,12.578988 1.8659968,12.443002 1.9989925,12.307001 2.1659848,12.238001 2.3670039,12.238001z M14.802001,2.1820059L14.09799,4.3449991 11.824004,4.3449991 13.664,5.6820043 12.962004,7.8449977 14.802001,6.5079926 16.641997,7.8449977 15.938993,5.6820043 17.779997,4.3449991 15.505002,4.3449991z M14.828978,0C21.518002,0,27.245999,4.1040018,29.63699,9.9309953L0.022003174,9.9309953C2.4119868,4.1040018,8.1409898,0,14.828978,0z" />
  </g>
</svg>